<svg width="56" height="56" viewBox="0 0 56 56" fill="none" xmlns="http://www.w3.org/2000/svg">
<rect width="56" height="56" rx="16" fill="#1E2235"/>
<path d="M21.6638 26.8236C21.5211 26.6372 21.3103 26.5149 21.0776 26.4836C20.845 26.4523 20.6094 26.5144 20.4224 26.6563C20.3124 26.7431 20.2236 26.8538 20.1629 26.9801L12.5405 42.2292C12.4326 42.4453 12.4148 42.6955 12.4912 42.9246C12.5676 43.1538 12.7319 43.3433 12.9479 43.4514C13.0742 43.5153 13.2138 43.5483 13.3553 43.5479H23.9752C24.1453 43.5522 24.313 43.5069 24.4577 43.4174C24.6024 43.3279 24.7179 43.1981 24.79 43.044C27.0821 38.3097 25.6927 31.1118 21.6638 26.8236Z" fill="url(#paint0_linear_111_136)"/>
<path d="M27.2664 12.9467C25.3662 15.8707 24.2588 19.2386 24.0528 22.7197C23.8468 26.2009 24.5493 29.6758 26.0914 32.8036L31.2117 43.044C31.2873 43.1953 31.4036 43.3226 31.5475 43.4116C31.6914 43.5006 31.8572 43.5478 32.0264 43.5479H42.6442C42.764 43.5481 42.8826 43.5248 42.9933 43.4791C43.104 43.4334 43.2046 43.3663 43.2892 43.2816C43.3739 43.1969 43.441 43.0963 43.4867 42.9857C43.5324 42.875 43.5558 42.7563 43.5555 42.6366C43.5556 42.4954 43.5233 42.356 43.4612 42.2292L28.8166 12.9424C28.7471 12.7956 28.6374 12.6716 28.5002 12.5848C28.363 12.4979 28.2039 12.4518 28.0415 12.4518C27.8792 12.4518 27.7201 12.4979 27.5829 12.5848C27.4457 12.6716 27.3359 12.7956 27.2664 12.9424V12.9467Z" fill="#2684FF"/>
<defs>
<linearGradient id="paint0_linear_111_136" x1="25.8599" y1="29.1542" x2="17.8108" y2="43.0954" gradientUnits="userSpaceOnUse">
<stop stop-color="#0052CC"/>
<stop offset="0.92" stop-color="#2684FF"/>
</linearGradient>
</defs>
</svg>
