<svg width="57" height="56" viewBox="0 0 57 56" fill="none" xmlns="http://www.w3.org/2000/svg">
<rect x="0.128662" width="56.3129" height="56" rx="16" fill="white"/>
<path d="M40.6653 18.4924C38.7743 16.0572 36.1995 14.2344 33.2667 13.2545C30.3338 12.2747 27.1746 12.1817 24.1887 12.9874C21.2027 13.7931 18.524 15.4613 16.4915 17.781C14.4589 20.1007 13.1638 22.9678 12.7699 26.0195C12.376 29.0712 12.9009 32.1706 14.2784 34.9256C15.6559 37.6806 17.824 39.9675 20.5086 41.497C23.1931 43.0266 26.2735 43.7301 29.3601 43.5186C32.4468 43.3071 35.401 42.1901 37.8492 40.3089C44.683 35.057 45.9441 25.2906 40.6649 18.4924H40.6653Z" fill="#FF6C37"/>
<path d="M33.5607 22.356L26.9651 28.967L25.1012 27.0615C31.5927 20.606 32.2443 21.1893 33.5612 22.356H33.5607Z" fill="white"/>
<path d="M26.9651 29.1478C26.9067 29.1464 26.8509 29.1234 26.8087 29.0832L24.9316 27.2165C24.8893 27.173 24.8657 27.1149 24.8657 27.0544C24.8657 26.9939 24.8893 26.9358 24.9316 26.8923C31.3318 20.5277 32.2053 20.8257 33.7172 22.1868C33.7425 22.2069 33.7628 22.2327 33.7764 22.2619C33.7899 22.2912 33.7965 22.3232 33.7954 22.3555C33.8052 22.4187 33.7808 22.4833 33.7304 22.5242L27.1347 29.0837C27.0885 29.1258 27.0278 29.149 26.9651 29.1483V29.1478ZM25.4268 27.061L26.9651 28.5908L33.222 22.3686C33.006 22.0994 32.6977 21.9188 32.3562 21.8614C32.0147 21.804 31.6639 21.8738 31.3709 22.0575C30.2368 22.563 28.412 24.1055 25.4268 27.061Z" fill="#FF6C37"/>
<path d="M28.8554 30.7947L27.0565 28.967L33.6522 22.4853C35.4252 24.2095 32.7919 27.0872 28.8554 30.7943V30.7947Z" fill="white"/>
<path d="M28.8554 31.0281C28.7977 31.0235 28.7429 31.0009 28.699 30.9634L26.861 29.1746C26.8334 29.1081 26.8334 29.0335 26.861 28.967C26.8415 28.9124 26.8415 28.8529 26.861 28.7983L33.4567 22.2393C33.5026 22.1964 33.5631 22.1726 33.6261 22.1726C33.689 22.1726 33.7496 22.1964 33.7955 22.2393C34.009 22.4348 34.1778 22.6738 34.2902 22.9399C34.4027 23.2061 34.4562 23.4932 34.4471 23.7817C34.4471 25.5317 32.4395 27.7352 29.0245 30.9503C28.9789 30.9952 28.9189 31.0227 28.8549 31.0281H28.8554ZM27.3953 28.967L28.8681 30.4311C31.475 27.9812 33.9651 25.4534 33.9778 23.7423C33.992 23.3796 33.8714 23.0244 33.639 22.7444L27.3953 28.967Z" fill="#FF6C37"/>
<path d="M25.153 27.1004L26.4567 28.3968C26.4651 28.4041 26.4717 28.4131 26.4763 28.4232C26.4809 28.4332 26.4832 28.4441 26.4832 28.4552C26.4832 28.4662 26.4809 28.4771 26.4763 28.4872C26.4717 28.4972 26.4651 28.5062 26.4567 28.5135L23.7061 29.0968C23.6506 29.1087 23.5927 29.1023 23.5412 29.0784C23.4897 29.0546 23.4475 29.0147 23.4209 28.9647C23.3943 28.9148 23.3849 28.8576 23.394 28.8019C23.4032 28.7461 23.4304 28.6949 23.4715 28.6559L25.0748 27.0746C25.0748 27.0746 25.1271 27.0746 25.153 27.1004Z" fill="white"/>
<path d="M23.6411 29.3559C23.5542 29.3548 23.469 29.3316 23.3937 29.2884C23.3184 29.2453 23.2555 29.1837 23.2109 29.1094C23.1608 29.0154 23.1426 28.9078 23.1591 28.8027C23.1756 28.6975 23.2258 28.6005 23.3023 28.5261L24.8925 26.9317C24.9498 26.8807 25.024 26.8525 25.101 26.8525C25.1779 26.8525 25.2521 26.8807 25.3094 26.9317L26.6131 28.2281C26.6904 28.3011 26.7207 28.4114 26.6913 28.5135C26.662 28.6156 26.576 28.6967 26.4699 28.721L23.7193 29.3044L23.6411 29.3559ZM25.1012 27.3857L23.6284 28.8504L26.0661 28.3317L25.1012 27.3857Z" fill="#FF6C37"/>
<path d="M37.0677 18.7131C36.1242 17.808 34.6421 17.77 33.6527 18.6241C32.6633 19.4782 32.4942 20.9443 33.2646 21.9992C34.035 23.054 35.4873 23.3496 36.6116 22.6797L34.8386 20.9166L37.0677 18.7131Z" fill="white"/>
<path d="M35.3078 23.2757C34.7658 23.2688 34.2378 23.1034 33.7896 22.8002C33.3414 22.4969 32.9929 22.0693 32.7874 21.5704C32.5821 21.072 32.5282 20.5246 32.6325 19.996C32.7367 19.4674 32.9945 18.9808 33.374 18.5964C33.8959 18.087 34.598 17.8015 35.3293 17.8015C36.0606 17.8015 36.7627 18.087 37.2846 18.5964C37.3345 18.6382 37.3628 18.7 37.3628 18.7651C37.3627 18.7971 37.3557 18.8288 37.3422 18.8579C37.3287 18.887 37.309 18.9129 37.2846 18.9338L35.1729 20.9171L36.7762 22.4858C36.8022 22.5104 36.8217 22.5411 36.8331 22.575C36.8444 22.6088 36.8472 22.645 36.8413 22.6802C36.8374 22.7142 36.8261 22.7469 36.8081 22.7761C36.7901 22.8052 36.7659 22.8301 36.7371 22.8489C36.3064 23.1166 35.8112 23.2644 35.3034 23.2767L35.3078 23.2757ZM35.3078 18.2459C34.379 18.2508 33.548 18.8064 33.1995 19.6557C32.851 20.5049 33.0406 21.4824 33.6917 22.1348C34.0156 22.4587 34.4303 22.6779 34.8815 22.7635C35.3327 22.8491 35.7994 22.7972 36.2204 22.6146L34.6821 21.0848C34.6577 21.0654 34.6379 21.0407 34.6243 21.0126C34.6108 20.9846 34.6037 20.9538 34.6037 20.9227C34.6037 20.8916 34.6108 20.8608 34.6243 20.8327C34.6379 20.8047 34.6577 20.78 34.6821 20.7606L36.7156 18.7252C36.3114 18.4172 35.8171 18.2487 35.3078 18.2455V18.2459Z" fill="#FF6C37"/>
<path d="M37.1067 18.752L34.8777 20.9555L36.6506 22.7186C36.8291 22.6167 36.9952 22.4949 37.1458 22.3555C37.6105 21.867 37.8661 21.2182 37.8588 20.5459C37.8515 19.8735 37.5819 19.2303 37.1067 18.752Z" fill="white"/>
<path d="M36.611 22.9131C36.5818 22.9146 36.5525 22.9096 36.5254 22.8985C36.4983 22.8873 36.4741 22.8702 36.4546 22.8484L34.6816 21.0853C34.6572 21.0658 34.6375 21.0412 34.6239 21.0131C34.6103 20.9851 34.6033 20.9543 34.6033 20.9232C34.6033 20.892 34.6103 20.8613 34.6239 20.8332C34.6375 20.8052 34.6572 20.7805 34.6816 20.7611L36.8975 18.5964C36.9189 18.5643 36.9479 18.538 36.9821 18.5198C37.0162 18.5016 37.0543 18.4921 37.093 18.4921C37.1317 18.4921 37.1699 18.5016 37.204 18.5198C37.2381 18.538 37.2671 18.5643 37.2885 18.5964C37.5487 18.8499 37.7553 19.1524 37.8964 19.4863C38.0375 19.8202 38.1102 20.1787 38.1102 20.5408C38.1102 20.903 38.0375 21.2615 37.8964 21.5954C37.7553 21.9293 37.5487 22.2318 37.2885 22.4853C37.1351 22.6471 36.9595 22.7867 36.767 22.8999C36.7185 22.9242 36.6624 22.9289 36.6105 22.9131H36.611ZM35.1773 20.9171L36.6501 22.3817C36.7515 22.3111 36.8474 22.2331 36.9371 22.1484C37.37 21.719 37.6139 21.1363 37.6151 20.5282C37.6161 19.984 37.4166 19.4583 37.0544 19.0504L35.1773 20.9171Z" fill="#FF6C37"/>
<path d="M33.8345 22.6282C33.658 22.4633 33.4249 22.3715 33.1827 22.3715C32.9405 22.3715 32.7074 22.4633 32.5308 22.6282L26.6263 28.4868L27.604 29.4721L33.8477 24.0277C33.9429 23.9369 34.0185 23.8278 34.0697 23.7069C34.1209 23.586 34.1466 23.456 34.1454 23.3249C34.1442 23.1937 34.1159 23.0642 34.0625 22.9443C34.009 22.8244 33.9314 22.7167 33.8345 22.6277V22.6282Z" fill="white"/>
<path d="M27.5517 29.7059C27.4932 29.7045 27.4375 29.6814 27.3952 29.6413L26.4044 28.6559C26.3621 28.6124 26.3385 28.5543 26.3385 28.4938C26.3385 28.4333 26.3621 28.3752 26.4044 28.3317L32.3094 22.4853C32.4794 22.3163 32.6966 22.2021 32.9328 22.1574C33.1689 22.1127 33.4131 22.1396 33.6337 22.2346C33.8543 22.3296 34.0411 22.4883 34.1699 22.6901C34.2987 22.892 34.3636 23.1276 34.3561 23.3666C34.3493 23.5288 34.31 23.688 34.2406 23.8349C34.1712 23.9818 34.073 24.1134 33.9518 24.2221L27.7081 29.6665C27.6627 29.6985 27.6068 29.7124 27.5517 29.7054V29.7059ZM26.8609 28.4867L27.5125 29.1479L33.639 23.8459C33.7905 23.7146 33.8809 23.527 33.8868 23.3272C33.8927 23.1274 33.8135 22.932 33.6654 22.7959C33.5286 22.6604 33.3434 22.5844 33.1504 22.5844C32.9573 22.5844 32.7722 22.6604 32.6354 22.7959L26.8609 28.4867Z" fill="#FF6C37"/>
<path d="M22.051 35.1629C22.0343 35.1855 22.0253 35.2127 22.0253 35.2407C22.0253 35.2687 22.0343 35.296 22.051 35.3185L22.3115 36.4463C22.322 36.5126 22.3121 36.5806 22.2831 36.6413C22.2542 36.702 22.2075 36.7526 22.1492 36.7865C22.0912 36.8203 22.0238 36.8349 21.9569 36.8282C21.8899 36.8214 21.8269 36.7938 21.7768 36.7491L19.9911 35.038L25.5573 29.459H27.4867L28.7904 30.7554C26.7567 32.5236 24.4892 34.0065 22.051 35.1629Z" fill="white"/>
<path d="M21.9336 37.0685C21.786 37.0656 21.6403 37.0053 21.5425 36.8998L19.8351 35.2018C19.8106 35.1824 19.7909 35.1577 19.7773 35.1297C19.7638 35.1016 19.7567 35.0709 19.7567 35.0397C19.7567 35.0086 19.7638 34.9778 19.7773 34.9498C19.7909 34.9217 19.8106 34.8971 19.8351 34.8776L25.4399 29.2908C25.4713 29.2576 25.5123 29.235 25.5572 29.2261H27.4993C27.5499 29.2083 27.6052 29.2083 27.6558 29.2261L28.9595 30.5226C28.9842 30.5453 29.0031 30.5737 29.0144 30.6053C29.0258 30.6368 29.0292 30.6707 29.0245 30.7039C29.0254 30.7361 29.0188 30.7681 29.0052 30.7973C28.9917 30.8266 28.9715 30.8524 28.9463 30.8726L28.8421 30.9635C26.8003 32.6563 24.5539 34.0889 22.155 35.2281L22.4029 36.2781C22.422 36.3591 22.4228 36.4433 22.405 36.5246C22.3873 36.6059 22.3515 36.6823 22.3003 36.7481C22.2491 36.8139 22.1838 36.8675 22.1091 36.9051C22.0344 36.9426 21.9522 36.963 21.8686 36.965L21.9336 37.0685ZM20.3435 35.0332L21.8813 36.5756C21.8956 36.5883 21.9142 36.5953 21.9334 36.5953C21.9526 36.5953 21.9711 36.5883 21.9854 36.5756C21.995 36.5623 22.0002 36.5464 22.0002 36.5301C22.0002 36.5138 21.995 36.4979 21.9854 36.4847L21.7249 35.3569C21.7043 35.276 21.7126 35.1905 21.7482 35.1149C21.7839 35.0393 21.8447 34.9783 21.9204 34.9423C24.2547 33.8182 26.4432 32.4166 28.4379 30.7681L27.3688 29.7049H25.6223L20.3435 35.0332Z" fill="#FF6C37"/>
<path d="M18.6487 36.3685L19.9524 35.072L21.96 37.0685L18.7665 36.8482C18.7117 36.844 18.6596 36.8226 18.6177 36.7871C18.5758 36.7517 18.5463 36.704 18.5333 36.6509C18.5203 36.5977 18.5245 36.5418 18.5453 36.4912C18.5661 36.4406 18.6025 36.3978 18.6492 36.3689L18.6487 36.3685Z" fill="white"/>
<path d="M21.9986 37.2629L18.8178 37.0427C18.6292 37.0252 18.4669 36.8969 18.4004 36.7253C18.3339 36.5537 18.3745 36.35 18.505 36.2129L19.8087 34.9165C19.8524 34.8745 19.9109 34.851 19.9717 34.851C20.0325 34.851 20.091 34.8745 20.1347 34.9165L22.1291 36.8998C22.1567 36.9374 22.1716 36.9828 22.1716 37.0294C22.1716 37.0759 22.1567 37.1213 22.1291 37.1589C22.099 37.2074 22.0528 37.244 21.9986 37.2624V37.2629ZM18.8178 36.5372L21.4247 36.7059L19.991 35.3705L18.8178 36.5372Z" fill="#FF6C37"/>
<path d="M27.669 29.6155L25.0358 30.0175L26.5609 28.514L27.669 29.6155Z" fill="white"/>
<path d="M25.0358 30.263C24.992 30.2641 24.9489 30.2524 24.9117 30.2294C24.8746 30.2063 24.8452 30.1728 24.827 30.1332C24.7993 30.0957 24.7843 30.0503 24.7843 30.0037C24.7843 29.9571 24.7993 29.9117 24.827 29.8741L26.3389 28.3574C26.3848 28.3146 26.4454 28.2907 26.5083 28.2907C26.5712 28.2907 26.6318 28.3146 26.6777 28.3574L27.7863 29.459C27.8085 29.4939 27.8202 29.5344 27.8202 29.5756C27.8202 29.6169 27.8085 29.6574 27.7863 29.6923C27.7754 29.7349 27.7525 29.7734 27.7201 29.8034C27.6878 29.8333 27.6475 29.8533 27.604 29.861L24.9971 30.263H25.0358ZM26.5609 28.8499L25.7137 29.6923L27.1738 29.4721L26.5609 28.8499Z" fill="#FF6C37"/>
<path d="M27.669 29.6145L25.831 29.8479C25.7818 29.859 25.7303 29.854 25.6842 29.8337C25.6381 29.8135 25.5997 29.7789 25.5749 29.7353C25.55 29.6916 25.54 29.6412 25.5462 29.5914C25.5525 29.5417 25.5747 29.4952 25.6096 29.459L26.5613 28.5125L27.669 29.6145Z" fill="white"/>
<path d="M25.7787 30.0948C25.6935 30.094 25.61 30.0708 25.5368 30.0275C25.4635 29.9842 25.4031 29.9224 25.3617 29.8484C25.3119 29.7596 25.2926 29.6572 25.3067 29.5565C25.3209 29.4559 25.3676 29.3626 25.4399 29.2908L26.3917 28.3443C26.4375 28.3015 26.4981 28.2776 26.561 28.2776C26.624 28.2776 26.6845 28.3015 26.7304 28.3443L27.8386 29.4463C27.8715 29.4774 27.8947 29.5173 27.9053 29.5612C27.9159 29.6051 27.9135 29.6511 27.8984 29.6936C27.8832 29.7362 27.8559 29.7735 27.8199 29.8009C27.7839 29.8284 27.7406 29.8449 27.6953 29.8484L25.8706 30.0817L25.7787 30.0948ZM25.7787 29.615L27.1606 29.4463L26.5481 28.8372L25.766 29.615H25.7787ZM37.1194 20.2429C37.0948 20.202 37.056 20.1714 37.0103 20.1571C36.9646 20.1428 36.9152 20.1456 36.8715 20.1651C36.8499 20.176 36.8308 20.191 36.8152 20.2094C36.7995 20.2278 36.7878 20.2491 36.7806 20.272C36.7661 20.3184 36.7707 20.3685 36.7933 20.4115C36.8847 20.6026 36.8593 20.8286 36.7283 20.9949C36.712 21.0109 36.6993 21.0301 36.6909 21.0513C36.6824 21.0724 36.6785 21.0951 36.6794 21.1179C36.6799 21.1634 36.6973 21.2072 36.7283 21.2408C36.7617 21.254 36.799 21.254 36.8324 21.2408C36.8628 21.2484 36.8946 21.2476 36.9245 21.2384C36.9544 21.2292 36.9813 21.2121 37.002 21.1888C37.1094 21.0581 37.1774 20.8999 37.1981 20.7324C37.2189 20.565 37.1916 20.3951 37.1194 20.2424V20.2429Z" fill="#FF6C37"/>
</svg>
