<svg width="1440" height="793" viewBox="0 0 1440 793" fill="none" xmlns="http://www.w3.org/2000/svg">
<g clip-path="url(#clip0_2029_545)">
<rect width="1440" height="793" fill="white"/>
<path fill-rule="evenodd" clip-rule="evenodd" d="M94 -31H-4V67H94V-31ZM-5 -32V68H95V-32H-5Z" fill="#C3C3C3"/>
<path fill-rule="evenodd" clip-rule="evenodd" d="M193 -31H95V67H193V-31ZM94 -32V68H194V-32H94Z" fill="#C3C3C3"/>
<path fill-rule="evenodd" clip-rule="evenodd" d="M292 -31H194V67H292V-31ZM193 -32V68H293V-32H193Z" fill="#C3C3C3"/>
<path fill-rule="evenodd" clip-rule="evenodd" d="M391 -31H293V67H391V-31ZM292 -32V68H392V-32H292Z" fill="#C3C3C3"/>
<path fill-rule="evenodd" clip-rule="evenodd" d="M490 -31H392V67H490V-31ZM391 -32V68H491V-32H391Z" fill="#C3C3C3"/>
<path fill-rule="evenodd" clip-rule="evenodd" d="M589 -31H491V67H589V-31ZM490 -32V68H590V-32H490Z" fill="#C3C3C3"/>
<path fill-rule="evenodd" clip-rule="evenodd" d="M688 -31H590V67H688V-31ZM589 -32V68H689V-32H589Z" fill="#C3C3C3"/>
<path fill-rule="evenodd" clip-rule="evenodd" d="M787 -31H689V67H787V-31ZM688 -32V68H788V-32H688Z" fill="#C3C3C3"/>
<path fill-rule="evenodd" clip-rule="evenodd" d="M886 -31H788V67H886V-31ZM787 -32V68H887V-32H787Z" fill="#C3C3C3"/>
<path fill-rule="evenodd" clip-rule="evenodd" d="M985 -31H887V67H985V-31ZM886 -32V68H986V-32H886Z" fill="#C3C3C3"/>
<path fill-rule="evenodd" clip-rule="evenodd" d="M1084 -31H986V67H1084V-31ZM985 -32V68H1085V-32H985Z" fill="#C3C3C3"/>
<path fill-rule="evenodd" clip-rule="evenodd" d="M1183 -31H1085V67H1183V-31ZM1084 -32V68H1184V-32H1084Z" fill="#C3C3C3"/>
<path fill-rule="evenodd" clip-rule="evenodd" d="M1282 -31H1184V67H1282V-31ZM1183 -32V68H1283V-32H1183Z" fill="#C3C3C3"/>
<path fill-rule="evenodd" clip-rule="evenodd" d="M1381 -31H1283V67H1381V-31ZM1282 -32V68H1382V-32H1282Z" fill="#C3C3C3"/>
<path fill-rule="evenodd" clip-rule="evenodd" d="M1480 -31H1382V67H1480V-31ZM1381 -32V68H1481V-32H1381Z" fill="#C3C3C3"/>
<path fill-rule="evenodd" clip-rule="evenodd" d="M1381 -31H1283V67H1381V-31ZM1282 -32V68H1382V-32H1282Z" fill="#C3C3C3"/>
<path fill-rule="evenodd" clip-rule="evenodd" d="M1480 -31H1382V67H1480V-31ZM1381 -32V68H1481V-32H1381Z" fill="#C3C3C3"/>
<path fill-rule="evenodd" clip-rule="evenodd" d="M94 68H-4V166H94V68ZM-5 67V167H95V67H-5Z" fill="#C3C3C3"/>
<path fill-rule="evenodd" clip-rule="evenodd" d="M193 68H95V166H193V68ZM94 67V167H194V67H94Z" fill="#C3C3C3"/>
<path fill-rule="evenodd" clip-rule="evenodd" d="M292 68H194V166H292V68ZM193 67V167H293V67H193Z" fill="#C3C3C3"/>
<path fill-rule="evenodd" clip-rule="evenodd" d="M391 68H293V166H391V68ZM292 67V167H392V67H292Z" fill="#C3C3C3"/>
<path fill-rule="evenodd" clip-rule="evenodd" d="M490 68H392V166H490V68ZM391 67V167H491V67H391Z" fill="#C3C3C3"/>
<path fill-rule="evenodd" clip-rule="evenodd" d="M589 68H491V166H589V68ZM490 67V167H590V67H490Z" fill="#C3C3C3"/>
<path fill-rule="evenodd" clip-rule="evenodd" d="M688 68H590V166H688V68ZM589 67V167H689V67H589Z" fill="#C3C3C3"/>
<path fill-rule="evenodd" clip-rule="evenodd" d="M787 68H689V166H787V68ZM688 67V167H788V67H688Z" fill="#C3C3C3"/>
<path fill-rule="evenodd" clip-rule="evenodd" d="M886 68H788V166H886V68ZM787 67V167H887V67H787Z" fill="#C3C3C3"/>
<path fill-rule="evenodd" clip-rule="evenodd" d="M985 68H887V166H985V68ZM886 67V167H986V67H886Z" fill="#C3C3C3"/>
<path fill-rule="evenodd" clip-rule="evenodd" d="M1084 68H986V166H1084V68ZM985 67V167H1085V67H985Z" fill="#C3C3C3"/>
<path fill-rule="evenodd" clip-rule="evenodd" d="M1183 68H1085V166H1183V68ZM1084 67V167H1184V67H1084Z" fill="#C3C3C3"/>
<path fill-rule="evenodd" clip-rule="evenodd" d="M1282 68H1184V166H1282V68ZM1183 67V167H1283V67H1183Z" fill="#C3C3C3"/>
<path fill-rule="evenodd" clip-rule="evenodd" d="M1381 68H1283V166H1381V68ZM1282 67V167H1382V67H1282Z" fill="#C3C3C3"/>
<path fill-rule="evenodd" clip-rule="evenodd" d="M1480 68H1382V166H1480V68ZM1381 67V167H1481V67H1381Z" fill="#C3C3C3"/>
<path fill-rule="evenodd" clip-rule="evenodd" d="M1381 68H1283V166H1381V68ZM1282 67V167H1382V67H1282Z" fill="#C3C3C3"/>
<path fill-rule="evenodd" clip-rule="evenodd" d="M1480 68H1382V166H1480V68ZM1381 67V167H1481V67H1381Z" fill="#C3C3C3"/>
<path fill-rule="evenodd" clip-rule="evenodd" d="M94 167H-4V265H94V167ZM-5 166V266H95V166H-5Z" fill="#C3C3C3"/>
<path fill-rule="evenodd" clip-rule="evenodd" d="M193 167H95V265H193V167ZM94 166V266H194V166H94Z" fill="#C3C3C3"/>
<path fill-rule="evenodd" clip-rule="evenodd" d="M292 167H194V265H292V167ZM193 166V266H293V166H193Z" fill="#C3C3C3"/>
<path fill-rule="evenodd" clip-rule="evenodd" d="M391 167H293V265H391V167ZM292 166V266H392V166H292Z" fill="#C3C3C3"/>
<path fill-rule="evenodd" clip-rule="evenodd" d="M490 167H392V265H490V167ZM391 166V266H491V166H391Z" fill="#C3C3C3"/>
<path fill-rule="evenodd" clip-rule="evenodd" d="M589 167H491V265H589V167ZM490 166V266H590V166H490Z" fill="#C3C3C3"/>
<path fill-rule="evenodd" clip-rule="evenodd" d="M688 167H590V265H688V167ZM589 166V266H689V166H589Z" fill="#C3C3C3"/>
<path fill-rule="evenodd" clip-rule="evenodd" d="M787 167H689V265H787V167ZM688 166V266H788V166H688Z" fill="#C3C3C3"/>
<path fill-rule="evenodd" clip-rule="evenodd" d="M886 167H788V265H886V167ZM787 166V266H887V166H787Z" fill="#C3C3C3"/>
<path fill-rule="evenodd" clip-rule="evenodd" d="M985 167H887V265H985V167ZM886 166V266H986V166H886Z" fill="#C3C3C3"/>
<path fill-rule="evenodd" clip-rule="evenodd" d="M1084 167H986V265H1084V167ZM985 166V266H1085V166H985Z" fill="#C3C3C3"/>
<path fill-rule="evenodd" clip-rule="evenodd" d="M1183 167H1085V265H1183V167ZM1084 166V266H1184V166H1084Z" fill="#C3C3C3"/>
<path fill-rule="evenodd" clip-rule="evenodd" d="M1282 167H1184V265H1282V167ZM1183 166V266H1283V166H1183Z" fill="#C3C3C3"/>
<path fill-rule="evenodd" clip-rule="evenodd" d="M1381 167H1283V265H1381V167ZM1282 166V266H1382V166H1282Z" fill="#C3C3C3"/>
<path fill-rule="evenodd" clip-rule="evenodd" d="M1480 167H1382V265H1480V167ZM1381 166V266H1481V166H1381Z" fill="#C3C3C3"/>
<path fill-rule="evenodd" clip-rule="evenodd" d="M1381 167H1283V265H1381V167ZM1282 166V266H1382V166H1282Z" fill="#C3C3C3"/>
<path fill-rule="evenodd" clip-rule="evenodd" d="M1480 167H1382V265H1480V167ZM1381 166V266H1481V166H1381Z" fill="#C3C3C3"/>
<path fill-rule="evenodd" clip-rule="evenodd" d="M94 266H-4V364H94V266ZM-5 265V365H95V265H-5Z" fill="#C3C3C3"/>
<path fill-rule="evenodd" clip-rule="evenodd" d="M193 266H95V364H193V266ZM94 265V365H194V265H94Z" fill="#C3C3C3"/>
<path fill-rule="evenodd" clip-rule="evenodd" d="M292 266H194V364H292V266ZM193 265V365H293V265H193Z" fill="#C3C3C3"/>
<path fill-rule="evenodd" clip-rule="evenodd" d="M391 266H293V364H391V266ZM292 265V365H392V265H292Z" fill="#C3C3C3"/>
<path fill-rule="evenodd" clip-rule="evenodd" d="M490 266H392V364H490V266ZM391 265V365H491V265H391Z" fill="#C3C3C3"/>
<path fill-rule="evenodd" clip-rule="evenodd" d="M589 266H491V364H589V266ZM490 265V365H590V265H490Z" fill="#C3C3C3"/>
<path fill-rule="evenodd" clip-rule="evenodd" d="M688 266H590V364H688V266ZM589 265V365H689V265H589Z" fill="#C3C3C3"/>
<path fill-rule="evenodd" clip-rule="evenodd" d="M787 266H689V364H787V266ZM688 265V365H788V265H688Z" fill="#C3C3C3"/>
<path fill-rule="evenodd" clip-rule="evenodd" d="M886 266H788V364H886V266ZM787 265V365H887V265H787Z" fill="#C3C3C3"/>
<path fill-rule="evenodd" clip-rule="evenodd" d="M985 266H887V364H985V266ZM886 265V365H986V265H886Z" fill="#C3C3C3"/>
<path fill-rule="evenodd" clip-rule="evenodd" d="M1084 266H986V364H1084V266ZM985 265V365H1085V265H985Z" fill="#C3C3C3"/>
<path fill-rule="evenodd" clip-rule="evenodd" d="M1183 266H1085V364H1183V266ZM1084 265V365H1184V265H1084Z" fill="#C3C3C3"/>
<path fill-rule="evenodd" clip-rule="evenodd" d="M1282 266H1184V364H1282V266ZM1183 265V365H1283V265H1183Z" fill="#C3C3C3"/>
<path fill-rule="evenodd" clip-rule="evenodd" d="M1381 266H1283V364H1381V266ZM1282 265V365H1382V265H1282Z" fill="#C3C3C3"/>
<path fill-rule="evenodd" clip-rule="evenodd" d="M1480 266H1382V364H1480V266ZM1381 265V365H1481V265H1381Z" fill="#C3C3C3"/>
<path fill-rule="evenodd" clip-rule="evenodd" d="M1381 266H1283V364H1381V266ZM1282 265V365H1382V265H1282Z" fill="#C3C3C3"/>
<path fill-rule="evenodd" clip-rule="evenodd" d="M1480 266H1382V364H1480V266ZM1381 265V365H1481V265H1381Z" fill="#C3C3C3"/>
<path fill-rule="evenodd" clip-rule="evenodd" d="M94 365H-4V463H94V365ZM-5 364V464H95V364H-5Z" fill="#C3C3C3"/>
<path fill-rule="evenodd" clip-rule="evenodd" d="M193 365H95V463H193V365ZM94 364V464H194V364H94Z" fill="#C3C3C3"/>
<path fill-rule="evenodd" clip-rule="evenodd" d="M292 365H194V463H292V365ZM193 364V464H293V364H193Z" fill="#C3C3C3"/>
<path fill-rule="evenodd" clip-rule="evenodd" d="M391 365H293V463H391V365ZM292 364V464H392V364H292Z" fill="#C3C3C3"/>
<path fill-rule="evenodd" clip-rule="evenodd" d="M490 365H392V463H490V365ZM391 364V464H491V364H391Z" fill="#C3C3C3"/>
<path fill-rule="evenodd" clip-rule="evenodd" d="M589 365H491V463H589V365ZM490 364V464H590V364H490Z" fill="#C3C3C3"/>
<path fill-rule="evenodd" clip-rule="evenodd" d="M688 365H590V463H688V365ZM589 364V464H689V364H589Z" fill="#C3C3C3"/>
<path fill-rule="evenodd" clip-rule="evenodd" d="M787 365H689V463H787V365ZM688 364V464H788V364H688Z" fill="#C3C3C3"/>
<path fill-rule="evenodd" clip-rule="evenodd" d="M886 365H788V463H886V365ZM787 364V464H887V364H787Z" fill="#C3C3C3"/>
<path fill-rule="evenodd" clip-rule="evenodd" d="M985 365H887V463H985V365ZM886 364V464H986V364H886Z" fill="#C3C3C3"/>
<path fill-rule="evenodd" clip-rule="evenodd" d="M1084 365H986V463H1084V365ZM985 364V464H1085V364H985Z" fill="#C3C3C3"/>
<path fill-rule="evenodd" clip-rule="evenodd" d="M1183 365H1085V463H1183V365ZM1084 364V464H1184V364H1084Z" fill="#C3C3C3"/>
<path fill-rule="evenodd" clip-rule="evenodd" d="M1282 365H1184V463H1282V365ZM1183 364V464H1283V364H1183Z" fill="#C3C3C3"/>
<path fill-rule="evenodd" clip-rule="evenodd" d="M1381 365H1283V463H1381V365ZM1282 364V464H1382V364H1282Z" fill="#C3C3C3"/>
<path fill-rule="evenodd" clip-rule="evenodd" d="M1480 365H1382V463H1480V365ZM1381 364V464H1481V364H1381Z" fill="#C3C3C3"/>
<path fill-rule="evenodd" clip-rule="evenodd" d="M1381 365H1283V463H1381V365ZM1282 364V464H1382V364H1282Z" fill="#C3C3C3"/>
<path fill-rule="evenodd" clip-rule="evenodd" d="M1480 365H1382V463H1480V365ZM1381 364V464H1481V364H1381Z" fill="#C3C3C3"/>
<path fill-rule="evenodd" clip-rule="evenodd" d="M94 464H-4V562H94V464ZM-5 463V563H95V463H-5Z" fill="#C3C3C3"/>
<path fill-rule="evenodd" clip-rule="evenodd" d="M193 464H95V562H193V464ZM94 463V563H194V463H94Z" fill="#C3C3C3"/>
<path fill-rule="evenodd" clip-rule="evenodd" d="M292 464H194V562H292V464ZM193 463V563H293V463H193Z" fill="#C3C3C3"/>
<path fill-rule="evenodd" clip-rule="evenodd" d="M391 464H293V562H391V464ZM292 463V563H392V463H292Z" fill="#C3C3C3"/>
<path fill-rule="evenodd" clip-rule="evenodd" d="M490 464H392V562H490V464ZM391 463V563H491V463H391Z" fill="#C3C3C3"/>
<path fill-rule="evenodd" clip-rule="evenodd" d="M589 464H491V562H589V464ZM490 463V563H590V463H490Z" fill="#C3C3C3"/>
<path fill-rule="evenodd" clip-rule="evenodd" d="M688 464H590V562H688V464ZM589 463V563H689V463H589Z" fill="#C3C3C3"/>
<path fill-rule="evenodd" clip-rule="evenodd" d="M787 464H689V562H787V464ZM688 463V563H788V463H688Z" fill="#C3C3C3"/>
<path fill-rule="evenodd" clip-rule="evenodd" d="M886 464H788V562H886V464ZM787 463V563H887V463H787Z" fill="#C3C3C3"/>
<path fill-rule="evenodd" clip-rule="evenodd" d="M985 464H887V562H985V464ZM886 463V563H986V463H886Z" fill="#C3C3C3"/>
<path fill-rule="evenodd" clip-rule="evenodd" d="M1084 464H986V562H1084V464ZM985 463V563H1085V463H985Z" fill="#C3C3C3"/>
<path fill-rule="evenodd" clip-rule="evenodd" d="M1183 464H1085V562H1183V464ZM1084 463V563H1184V463H1084Z" fill="#C3C3C3"/>
<path fill-rule="evenodd" clip-rule="evenodd" d="M1282 464H1184V562H1282V464ZM1183 463V563H1283V463H1183Z" fill="#C3C3C3"/>
<path fill-rule="evenodd" clip-rule="evenodd" d="M1381 464H1283V562H1381V464ZM1282 463V563H1382V463H1282Z" fill="#C3C3C3"/>
<path fill-rule="evenodd" clip-rule="evenodd" d="M1480 464H1382V562H1480V464ZM1381 463V563H1481V463H1381Z" fill="#C3C3C3"/>
<path fill-rule="evenodd" clip-rule="evenodd" d="M1381 464H1283V562H1381V464ZM1282 463V563H1382V463H1282Z" fill="#C3C3C3"/>
<path fill-rule="evenodd" clip-rule="evenodd" d="M1480 464H1382V562H1480V464ZM1381 463V563H1481V463H1381Z" fill="#C3C3C3"/>
<path fill-rule="evenodd" clip-rule="evenodd" d="M94 563H-4V661H94V563ZM-5 562V662H95V562H-5Z" fill="#C3C3C3"/>
<path fill-rule="evenodd" clip-rule="evenodd" d="M193 563H95V661H193V563ZM94 562V662H194V562H94Z" fill="#C3C3C3"/>
<path fill-rule="evenodd" clip-rule="evenodd" d="M292 563H194V661H292V563ZM193 562V662H293V562H193Z" fill="#C3C3C3"/>
<path fill-rule="evenodd" clip-rule="evenodd" d="M391 563H293V661H391V563ZM292 562V662H392V562H292Z" fill="#C3C3C3"/>
<path fill-rule="evenodd" clip-rule="evenodd" d="M490 563H392V661H490V563ZM391 562V662H491V562H391Z" fill="#C3C3C3"/>
<path fill-rule="evenodd" clip-rule="evenodd" d="M589 563H491V661H589V563ZM490 562V662H590V562H490Z" fill="#C3C3C3"/>
<path fill-rule="evenodd" clip-rule="evenodd" d="M688 563H590V661H688V563ZM589 562V662H689V562H589Z" fill="#C3C3C3"/>
<path fill-rule="evenodd" clip-rule="evenodd" d="M787 563H689V661H787V563ZM688 562V662H788V562H688Z" fill="#C3C3C3"/>
<path fill-rule="evenodd" clip-rule="evenodd" d="M886 563H788V661H886V563ZM787 562V662H887V562H787Z" fill="#C3C3C3"/>
<path fill-rule="evenodd" clip-rule="evenodd" d="M985 563H887V661H985V563ZM886 562V662H986V562H886Z" fill="#C3C3C3"/>
<path fill-rule="evenodd" clip-rule="evenodd" d="M1084 563H986V661H1084V563ZM985 562V662H1085V562H985Z" fill="#C3C3C3"/>
<path fill-rule="evenodd" clip-rule="evenodd" d="M1183 563H1085V661H1183V563ZM1084 562V662H1184V562H1084Z" fill="#C3C3C3"/>
<path fill-rule="evenodd" clip-rule="evenodd" d="M1282 563H1184V661H1282V563ZM1183 562V662H1283V562H1183Z" fill="#C3C3C3"/>
<path fill-rule="evenodd" clip-rule="evenodd" d="M1381 563H1283V661H1381V563ZM1282 562V662H1382V562H1282Z" fill="#C3C3C3"/>
<path fill-rule="evenodd" clip-rule="evenodd" d="M1480 563H1382V661H1480V563ZM1381 562V662H1481V562H1381Z" fill="#C3C3C3"/>
<path fill-rule="evenodd" clip-rule="evenodd" d="M1381 563H1283V661H1381V563ZM1282 562V662H1382V562H1282Z" fill="#C3C3C3"/>
<path fill-rule="evenodd" clip-rule="evenodd" d="M1480 563H1382V661H1480V563ZM1381 562V662H1481V562H1381Z" fill="#C3C3C3"/>
<path fill-rule="evenodd" clip-rule="evenodd" d="M94 662H-4V760H94V662ZM-5 661V761H95V661H-5Z" fill="#C3C3C3"/>
<path fill-rule="evenodd" clip-rule="evenodd" d="M193 662H95V760H193V662ZM94 661V761H194V661H94Z" fill="#C3C3C3"/>
<path fill-rule="evenodd" clip-rule="evenodd" d="M292 662H194V760H292V662ZM193 661V761H293V661H193Z" fill="#C3C3C3"/>
<path fill-rule="evenodd" clip-rule="evenodd" d="M391 662H293V760H391V662ZM292 661V761H392V661H292Z" fill="#C3C3C3"/>
<path fill-rule="evenodd" clip-rule="evenodd" d="M490 662H392V760H490V662ZM391 661V761H491V661H391Z" fill="#C3C3C3"/>
<path fill-rule="evenodd" clip-rule="evenodd" d="M589 662H491V760H589V662ZM490 661V761H590V661H490Z" fill="#C3C3C3"/>
<path fill-rule="evenodd" clip-rule="evenodd" d="M688 662H590V760H688V662ZM589 661V761H689V661H589Z" fill="#C3C3C3"/>
<path fill-rule="evenodd" clip-rule="evenodd" d="M787 662H689V760H787V662ZM688 661V761H788V661H688Z" fill="#C3C3C3"/>
<path fill-rule="evenodd" clip-rule="evenodd" d="M886 662H788V760H886V662ZM787 661V761H887V661H787Z" fill="#C3C3C3"/>
<path fill-rule="evenodd" clip-rule="evenodd" d="M985 662H887V760H985V662ZM886 661V761H986V661H886Z" fill="#C3C3C3"/>
<path fill-rule="evenodd" clip-rule="evenodd" d="M1084 662H986V760H1084V662ZM985 661V761H1085V661H985Z" fill="#C3C3C3"/>
<path fill-rule="evenodd" clip-rule="evenodd" d="M1183 662H1085V760H1183V662ZM1084 661V761H1184V661H1084Z" fill="#C3C3C3"/>
<path fill-rule="evenodd" clip-rule="evenodd" d="M1282 662H1184V760H1282V662ZM1183 661V761H1283V661H1183Z" fill="#C3C3C3"/>
<path fill-rule="evenodd" clip-rule="evenodd" d="M1381 662H1283V760H1381V662ZM1282 661V761H1382V661H1282Z" fill="#C3C3C3"/>
<path fill-rule="evenodd" clip-rule="evenodd" d="M1480 662H1382V760H1480V662ZM1381 661V761H1481V661H1381Z" fill="#C3C3C3"/>
<path fill-rule="evenodd" clip-rule="evenodd" d="M1381 662H1283V760H1381V662ZM1282 661V761H1382V661H1282Z" fill="#C3C3C3"/>
<path fill-rule="evenodd" clip-rule="evenodd" d="M1480 662H1382V760H1480V662ZM1381 661V761H1481V661H1381Z" fill="#C3C3C3"/>
<path fill-rule="evenodd" clip-rule="evenodd" d="M94 761H-4V859H94V761ZM-5 760V860H95V760H-5Z" fill="#C3C3C3"/>
<path fill-rule="evenodd" clip-rule="evenodd" d="M193 761H95V859H193V761ZM94 760V860H194V760H94Z" fill="#C3C3C3"/>
<path fill-rule="evenodd" clip-rule="evenodd" d="M292 761H194V859H292V761ZM193 760V860H293V760H193Z" fill="#C3C3C3"/>
<path fill-rule="evenodd" clip-rule="evenodd" d="M391 761H293V859H391V761ZM292 760V860H392V760H292Z" fill="#C3C3C3"/>
<path fill-rule="evenodd" clip-rule="evenodd" d="M490 761H392V859H490V761ZM391 760V860H491V760H391Z" fill="#C3C3C3"/>
<path fill-rule="evenodd" clip-rule="evenodd" d="M589 761H491V859H589V761ZM490 760V860H590V760H490Z" fill="#C3C3C3"/>
<path fill-rule="evenodd" clip-rule="evenodd" d="M688 761H590V859H688V761ZM589 760V860H689V760H589Z" fill="#C3C3C3"/>
<path fill-rule="evenodd" clip-rule="evenodd" d="M787 761H689V859H787V761ZM688 760V860H788V760H688Z" fill="#C3C3C3"/>
<path fill-rule="evenodd" clip-rule="evenodd" d="M886 761H788V859H886V761ZM787 760V860H887V760H787Z" fill="#C3C3C3"/>
<path fill-rule="evenodd" clip-rule="evenodd" d="M985 761H887V859H985V761ZM886 760V860H986V760H886Z" fill="#C3C3C3"/>
<path fill-rule="evenodd" clip-rule="evenodd" d="M1084 761H986V859H1084V761ZM985 760V860H1085V760H985Z" fill="#C3C3C3"/>
<path fill-rule="evenodd" clip-rule="evenodd" d="M1183 761H1085V859H1183V761ZM1084 760V860H1184V760H1084Z" fill="#C3C3C3"/>
<path fill-rule="evenodd" clip-rule="evenodd" d="M1282 761H1184V859H1282V761ZM1183 760V860H1283V760H1183Z" fill="#C3C3C3"/>
<path fill-rule="evenodd" clip-rule="evenodd" d="M1381 761H1283V859H1381V761ZM1282 760V860H1382V760H1282Z" fill="#C3C3C3"/>
<path fill-rule="evenodd" clip-rule="evenodd" d="M1480 761H1382V859H1480V761ZM1381 760V860H1481V760H1381Z" fill="#C3C3C3"/>
<path fill-rule="evenodd" clip-rule="evenodd" d="M1381 761H1283V859H1381V761ZM1282 760V860H1382V760H1282Z" fill="#C3C3C3"/>
<path fill-rule="evenodd" clip-rule="evenodd" d="M1480 761H1382V859H1480V761ZM1381 760V860H1481V760H1381Z" fill="#C3C3C3"/>
<rect width="1440" height="793" fill="url(#paint0_linear_2029_545)"/>
</g>
<defs>
<linearGradient id="paint0_linear_2029_545" x1="1440" y1="7.79295e-05" x2="1.35663e-06" y2="793" gradientUnits="userSpaceOnUse">
<stop stop-color="white" stop-opacity="0.6"/>
<stop offset="1" stop-color="white" stop-opacity="0.8"/>
</linearGradient>
<clipPath id="clip0_2029_545">
<rect width="1440" height="793" fill="white"/>
</clipPath>
</defs>
</svg>
