<svg width="56" height="56" viewBox="0 0 56 56" fill="none" xmlns="http://www.w3.org/2000/svg">
<rect width="56" height="56" rx="16" fill="#1E2235"/>
<path d="M40.3115 18.4924C38.431 16.0572 35.8705 14.2344 32.954 13.2546C30.0374 12.2747 26.8958 12.1817 23.9264 12.9874C20.957 13.7931 18.2932 15.4613 16.272 17.781C14.2507 20.1008 12.9628 22.9678 12.5711 26.0195C12.1793 29.0712 12.7014 32.1706 14.0712 34.9256C15.4411 37.6806 17.5971 39.9675 20.2668 41.497C22.9364 43.0266 25.9997 43.7301 29.0691 43.5186C32.1386 43.3071 35.0765 42.1901 37.5111 40.3089C44.3069 35.057 45.561 25.2906 40.3111 18.4924H40.3115Z" fill="#FF6C37"/>
<path d="M33.2464 22.356L26.6874 28.9671L24.8339 27.0615C31.2893 20.606 31.9373 21.1893 33.2469 22.356H33.2464Z" fill="#1E2235"/>
<path d="M26.6875 29.1479C26.6294 29.1465 26.5739 29.1234 26.5319 29.0832L24.6652 27.2166C24.6232 27.1731 24.5997 27.115 24.5997 27.0545C24.5997 26.994 24.6232 26.9359 24.6652 26.8924C31.0298 20.5278 31.8985 20.8257 33.402 22.1868C33.4272 22.207 33.4474 22.2327 33.4609 22.262C33.4744 22.2913 33.4809 22.3233 33.4798 22.3555C33.4895 22.4187 33.4652 22.4834 33.4152 22.5242L26.8561 29.0837C26.8101 29.1259 26.7498 29.149 26.6875 29.1484V29.1479ZM25.1577 27.061L26.6875 28.5908L32.9096 22.3686C32.6948 22.0994 32.3882 21.9188 32.0486 21.8614C31.709 21.804 31.3601 21.8739 31.0687 22.0575C29.941 22.5631 28.1263 24.1055 25.1577 27.061Z" fill="#FF6C37"/>
<path d="M28.5672 30.7948L26.7783 28.967L33.3374 22.4853C35.1005 24.2095 32.4818 27.0872 28.5672 30.7943V30.7948Z" fill="#1E2235"/>
<path d="M28.5672 31.0281C28.5098 31.0236 28.4554 31.0009 28.4117 30.9635L26.5839 29.1746C26.5565 29.1081 26.5565 29.0335 26.5839 28.967C26.5645 28.9125 26.5645 28.8529 26.5839 28.7983L33.143 22.2393C33.1886 22.1965 33.2488 22.1726 33.3114 22.1726C33.374 22.1726 33.4342 22.1965 33.4798 22.2393C33.6922 22.4348 33.8601 22.6738 33.9719 22.9399C34.0837 23.2061 34.1369 23.4932 34.1278 23.7817C34.1278 25.5317 32.1314 27.7352 28.7354 30.9503C28.6901 30.9952 28.6304 31.0228 28.5667 31.0281H28.5672ZM27.1152 28.967L28.5799 30.4312C31.1723 27.9812 33.6485 25.4535 33.6612 23.7424C33.6753 23.3796 33.5553 23.0244 33.3243 22.7444L27.1152 28.967Z" fill="#FF6C37"/>
<path d="M24.8854 27.1004L26.1819 28.3969C26.1902 28.4042 26.1968 28.4131 26.2013 28.4232C26.2059 28.4332 26.2082 28.4442 26.2082 28.4552C26.2082 28.4662 26.2059 28.4771 26.2013 28.4872C26.1968 28.4972 26.1902 28.5062 26.1819 28.5135L23.4466 29.0968C23.3914 29.1088 23.3338 29.1023 23.2825 29.0785C23.2313 29.0546 23.1893 29.0147 23.1629 28.9648C23.1365 28.9148 23.1271 28.8577 23.1362 28.8019C23.1453 28.7462 23.1723 28.6949 23.2132 28.6559L24.8077 27.0746C24.8077 27.0746 24.8597 27.0746 24.8854 27.1004Z" fill="#1E2235"/>
<path d="M23.3819 29.3559C23.2955 29.3548 23.2108 29.3316 23.1359 29.2884C23.061 29.2453 22.9984 29.1837 22.9541 29.1094C22.9043 29.0154 22.8862 28.9078 22.9026 28.8027C22.919 28.6975 22.969 28.6005 23.045 28.5261L24.6263 26.9317C24.6834 26.8807 24.7572 26.8525 24.8337 26.8525C24.9102 26.8525 24.984 26.8807 25.041 26.9317L26.3374 28.2281C26.4142 28.3011 26.4444 28.4114 26.4152 28.5135C26.386 28.6156 26.3005 28.6967 26.195 28.721L23.4597 29.3044L23.3819 29.3559ZM24.8339 27.3857L23.3693 28.8504L25.7935 28.3317L24.8339 27.3857Z" fill="#FF6C37"/>
<path d="M36.7338 18.7131C35.7956 17.808 34.3217 17.7701 33.3378 18.6241C32.3539 19.4782 32.1857 20.9443 32.9518 21.9992C33.7179 23.054 35.1622 23.3496 36.2803 22.6797L34.5171 20.9166L36.7338 18.7131Z" fill="#1E2235"/>
<path d="M34.9838 23.2757C34.4448 23.2688 33.9197 23.1034 33.474 22.8002C33.0284 22.497 32.6818 22.0693 32.4774 21.5705C32.2732 21.072 32.2197 20.5246 32.3234 19.996C32.427 19.4674 32.6834 18.9809 33.0608 18.5965C33.5797 18.087 34.278 17.8016 35.0052 17.8016C35.7325 17.8016 36.4307 18.087 36.9496 18.5965C36.9992 18.6383 37.0274 18.7 37.0274 18.7651C37.0273 18.7972 37.0203 18.8288 37.0069 18.8579C36.9935 18.887 36.9739 18.9129 36.9496 18.9338L34.8496 20.9171L36.4441 22.4858C36.4699 22.5105 36.4893 22.5411 36.5006 22.575C36.5119 22.6089 36.5147 22.645 36.5087 22.6802C36.5049 22.7142 36.4936 22.747 36.4757 22.7761C36.4579 22.8053 36.4338 22.8301 36.4052 22.8489C35.9769 23.1167 35.4844 23.2644 34.9794 23.2767L34.9838 23.2757ZM34.9838 18.246C34.0602 18.2508 33.2338 18.8065 32.8872 19.6557C32.5406 20.5049 32.7292 21.4825 33.3767 22.1348C33.6988 22.4588 34.1112 22.6779 34.5599 22.7635C35.0086 22.8491 35.4727 22.7972 35.8914 22.6146L34.3616 21.0848C34.3373 21.0654 34.3176 21.0407 34.3041 21.0127C34.2907 20.9846 34.2836 20.9539 34.2836 20.9227C34.2836 20.8916 34.2907 20.8608 34.3041 20.8328C34.3176 20.8047 34.3373 20.78 34.3616 20.7606L36.3838 18.7253C35.9818 18.4172 35.4903 18.2487 34.9838 18.2455V18.246Z" fill="#FF6C37"/>
<path d="M36.7727 18.752L34.556 20.9555L36.3191 22.7186C36.4966 22.6167 36.6618 22.4949 36.8115 22.3555C37.2736 21.867 37.5279 21.2182 37.5206 20.5458C37.5134 19.8735 37.2452 19.2303 36.7727 18.752Z" fill="#1E2235"/>
<path d="M36.2798 22.9131C36.2507 22.9146 36.2216 22.9096 36.1947 22.8985C36.1677 22.8873 36.1437 22.8702 36.1243 22.8484L34.3611 21.0853C34.3368 21.0658 34.3172 21.0412 34.3037 21.0131C34.2902 20.9851 34.2832 20.9543 34.2832 20.9232C34.2832 20.892 34.2902 20.8613 34.3037 20.8332C34.3172 20.8052 34.3368 20.7805 34.3611 20.7611L36.5647 18.5964C36.586 18.5643 36.6148 18.538 36.6488 18.5198C36.6827 18.5016 36.7206 18.4921 36.7591 18.4921C36.7976 18.4921 36.8355 18.5016 36.8695 18.5198C36.9034 18.538 36.9323 18.5643 36.9536 18.5964C37.2122 18.8499 37.4178 19.1524 37.558 19.4863C37.6983 19.8202 37.7706 20.1787 37.7706 20.5408C37.7706 20.903 37.6983 21.2615 37.558 21.5954C37.4178 21.9293 37.2122 22.2318 36.9536 22.4853C36.801 22.6471 36.6264 22.7867 36.4349 22.8999C36.3867 22.9242 36.3309 22.9289 36.2793 22.9131H36.2798ZM34.8541 20.9171L36.3187 22.3817C36.4195 22.3111 36.5148 22.2331 36.604 22.1484C37.0346 21.719 37.2771 21.1363 37.2783 20.5282C37.2793 19.984 37.0809 19.4583 36.7207 19.0504L34.8541 20.9171Z" fill="#FF6C37"/>
<path d="M33.5187 22.6282C33.3432 22.4634 33.1114 22.3716 32.8705 22.3716C32.6297 22.3716 32.3979 22.4634 32.2223 22.6282L26.3506 28.4868L27.3228 29.4722L33.5319 24.0277C33.6265 23.937 33.7017 23.8278 33.7526 23.7069C33.8035 23.5861 33.8291 23.4561 33.8279 23.3249C33.8266 23.1938 33.7986 23.0642 33.7454 22.9444C33.6922 22.8245 33.6151 22.7167 33.5187 22.6277V22.6282Z" fill="#1E2235"/>
<path d="M27.2707 29.7059C27.2126 29.7045 27.1572 29.6815 27.1152 29.6413L26.1298 28.6559C26.0878 28.6124 26.0643 28.5543 26.0643 28.4938C26.0643 28.4333 26.0878 28.3752 26.1298 28.3317L32.002 22.4853C32.1712 22.3164 32.3871 22.2021 32.622 22.1575C32.8568 22.1128 33.0997 22.1396 33.319 22.2346C33.5384 22.3296 33.7242 22.4883 33.8523 22.6902C33.9803 22.892 34.0448 23.1277 34.0373 23.3666C34.0306 23.5288 33.9916 23.688 33.9226 23.8349C33.8535 23.9818 33.7559 24.1135 33.6353 24.2222L27.4263 29.6666C27.3811 29.6985 27.3256 29.7124 27.2707 29.7054V29.7059ZM26.5839 28.4868L27.2319 29.1479L33.3242 23.8459C33.4749 23.7147 33.5649 23.527 33.5707 23.3272C33.5765 23.1274 33.4978 22.932 33.3505 22.7959C33.2145 22.6605 33.0303 22.5844 32.8384 22.5844C32.6464 22.5844 32.4623 22.6605 32.3263 22.7959L26.5839 28.4868Z" fill="#FF6C37"/>
<path d="M21.8006 35.163C21.7841 35.1855 21.7751 35.2128 21.7751 35.2407C21.7751 35.2687 21.7841 35.296 21.8006 35.3185L22.0597 36.4463C22.0701 36.5127 22.0603 36.5806 22.0315 36.6413C22.0027 36.702 21.9563 36.7526 21.8984 36.7866C21.8406 36.8204 21.7736 36.8349 21.707 36.8282C21.6405 36.8215 21.5778 36.7938 21.5279 36.7491L19.7522 35.038L25.2875 29.459H27.2061L28.5026 30.7554C26.4802 32.5236 24.2253 34.0066 21.8006 35.163Z" fill="#1E2235"/>
<path d="M21.684 37.0685C21.5372 37.0656 21.3923 37.0053 21.2951 36.8998L19.5971 35.2018C19.5728 35.1824 19.5532 35.1577 19.5397 35.1296C19.5262 35.1016 19.5192 35.0708 19.5192 35.0397C19.5192 35.0086 19.5262 34.9778 19.5397 34.9498C19.5532 34.9217 19.5728 34.897 19.5971 34.8776L25.1708 29.2908C25.202 29.2576 25.2428 29.235 25.2875 29.2261H27.2188C27.2691 29.2083 27.324 29.2083 27.3743 29.2261L28.6708 30.5226C28.6954 30.5453 28.7142 30.5737 28.7255 30.6052C28.7367 30.6368 28.7401 30.6707 28.7354 30.7039C28.7363 30.7361 28.7298 30.7681 28.7163 30.7973C28.7028 30.8266 28.6827 30.8523 28.6577 30.8726L28.5541 30.9635C26.5236 32.6562 24.2897 34.0889 21.9042 35.2281L22.1506 36.2781C22.1697 36.3591 22.1704 36.4433 22.1528 36.5246C22.1351 36.6059 22.0995 36.6823 22.0486 36.7481C21.9977 36.8139 21.9328 36.8675 21.8585 36.905C21.7842 36.9426 21.7025 36.963 21.6193 36.9649L21.684 37.0685ZM20.1027 35.0331L21.632 36.5756C21.6462 36.5883 21.6646 36.5953 21.6837 36.5953C21.7028 36.5953 21.7212 36.5883 21.7355 36.5756C21.745 36.5623 21.7502 36.5464 21.7502 36.5301C21.7502 36.5138 21.745 36.4979 21.7355 36.4847L21.4764 35.3569C21.456 35.276 21.4642 35.1904 21.4996 35.1149C21.5351 35.0393 21.5956 34.9783 21.6708 34.9422C23.9922 33.8182 26.1686 32.4166 28.1521 30.768L27.089 29.7049H25.3521L20.1027 35.0331Z" fill="#FF6C37"/>
<path d="M18.4173 36.3685L19.7138 35.072L21.7102 37.0685L18.5345 36.8482C18.4799 36.844 18.4282 36.8226 18.3865 36.7871C18.3449 36.7517 18.3155 36.704 18.3025 36.6509C18.2896 36.5977 18.2938 36.5418 18.3145 36.4912C18.3352 36.4406 18.3713 36.3978 18.4178 36.3689L18.4173 36.3685Z" fill="#1E2235"/>
<path d="M21.7486 37.2629L18.5855 37.0427C18.3979 37.0252 18.2365 36.8969 18.1704 36.7253C18.1042 36.5537 18.1446 36.35 18.2744 36.2129L19.5708 34.9165C19.6143 34.8744 19.6725 34.851 19.7329 34.851C19.7934 34.851 19.8516 34.8744 19.8951 34.9165L21.8784 36.8998C21.9058 36.9374 21.9206 36.9828 21.9206 37.0293C21.9206 37.0759 21.9058 37.1213 21.8784 37.1589C21.8484 37.2074 21.8025 37.244 21.7486 37.2624V37.2629ZM18.5855 36.5372L21.1779 36.7058L19.7521 35.3705L18.5855 36.5372Z" fill="#FF6C37"/>
<path d="M27.3874 29.6155L24.7688 30.0175L26.2854 28.514L27.3874 29.6155Z" fill="#1E2235"/>
<path d="M24.7687 30.263C24.7252 30.2641 24.6823 30.2524 24.6454 30.2294C24.6085 30.2063 24.5792 30.1728 24.5612 30.1332C24.5336 30.0956 24.5187 30.0503 24.5187 30.0037C24.5187 29.957 24.5336 29.9117 24.5612 29.8741L26.0647 28.3574C26.1103 28.3146 26.1705 28.2907 26.2331 28.2907C26.2957 28.2907 26.3559 28.3146 26.4015 28.3574L27.504 29.459C27.526 29.4939 27.5377 29.5343 27.5377 29.5756C27.5377 29.6169 27.526 29.6574 27.504 29.6923C27.4932 29.7349 27.4704 29.7734 27.4382 29.8033C27.406 29.8333 27.3659 29.8533 27.3227 29.861L24.7303 30.263H24.7687ZM26.2854 28.8499L25.443 29.6923L26.8949 29.4721L26.2854 28.8499Z" fill="#FF6C37"/>
<path d="M27.3874 29.6145L25.5596 29.8479C25.5107 29.859 25.4595 29.854 25.4137 29.8337C25.3678 29.8135 25.3297 29.7789 25.3049 29.7353C25.2802 29.6916 25.2702 29.6412 25.2765 29.5914C25.2827 29.5417 25.3047 29.4952 25.3394 29.459L26.2859 28.5125L27.3874 29.6145Z" fill="#1E2235"/>
<path d="M25.5076 30.0948C25.4229 30.094 25.3399 30.0708 25.267 30.0275C25.1942 29.9842 25.1341 29.9224 25.0929 29.8483C25.0434 29.7596 25.0243 29.6571 25.0383 29.5565C25.0523 29.4559 25.0988 29.3626 25.1707 29.2908L26.1172 28.3443C26.1628 28.3015 26.223 28.2776 26.2856 28.2776C26.3482 28.2776 26.4084 28.3015 26.454 28.3443L27.556 29.4463C27.5888 29.4774 27.6119 29.5173 27.6224 29.5612C27.633 29.6051 27.6306 29.6511 27.6155 29.6936C27.6004 29.7362 27.5733 29.7734 27.5375 29.8009C27.5017 29.8284 27.4586 29.8448 27.4136 29.8483L25.599 30.0817L25.5076 30.0948ZM25.5076 29.615L26.8818 29.4463L26.2727 28.8372L25.495 29.615H25.5076ZM36.7853 20.2428C36.7609 20.2019 36.7223 20.1714 36.6768 20.1571C36.6314 20.1427 36.5823 20.1456 36.5388 20.1651C36.5174 20.1759 36.4983 20.191 36.4828 20.2094C36.4672 20.2277 36.4556 20.249 36.4484 20.272C36.434 20.3184 36.4385 20.3685 36.461 20.4115C36.5519 20.6026 36.5267 20.8286 36.3964 20.9949C36.3802 21.0109 36.3675 21.0301 36.3592 21.0512C36.3508 21.0724 36.3469 21.0951 36.3478 21.1178C36.3482 21.1634 36.3656 21.2072 36.3964 21.2408C36.4296 21.254 36.4667 21.254 36.4999 21.2408C36.5301 21.2484 36.5618 21.2476 36.5915 21.2384C36.6213 21.2292 36.6479 21.2121 36.6686 21.1888C36.7753 21.0581 36.8429 20.8999 36.8636 20.7324C36.8842 20.565 36.8571 20.3951 36.7853 20.2424V20.2428Z" fill="#FF6C37"/>
</svg>
