<svg width="57" height="56" viewBox="0 0 57 56" fill="none" xmlns="http://www.w3.org/2000/svg">
<rect x="0.625732" width="56.3129" height="56" rx="16" fill="white"/>
<path d="M43.8345 26.6139L30.1753 13.0312C29.3891 12.2489 28.1133 12.2489 27.3261 13.0312L24.4897 15.8518L28.0878 19.43C28.924 19.149 29.8828 19.3375 30.5493 20.0003C31.219 20.6674 31.4072 21.629 31.1178 22.4632L34.5855 25.9117C35.4244 25.6243 36.3924 25.8102 37.0625 26.4776C37.9989 27.4085 37.9989 28.9173 37.0625 29.8488C36.1258 30.7804 34.6086 30.7804 33.6714 29.8488C32.967 29.1476 32.7929 28.1189 33.1495 27.2559L29.9157 24.04L29.9153 32.5028C30.1498 32.6181 30.3639 32.7704 30.5493 32.9537C31.4858 33.8846 31.4858 35.3935 30.5493 36.3257C29.6126 37.2569 28.0947 37.2569 27.1593 36.3257C26.2229 35.3935 26.2229 33.8847 27.1593 32.9538C27.3837 32.7306 27.6504 32.5537 27.944 32.4336V23.8919C27.65 23.7725 27.3832 23.5956 27.1593 23.3716C26.4498 22.667 26.2792 21.6317 26.6428 20.7653L23.0958 17.2377L13.7299 26.551C12.9429 27.334 12.9429 28.6029 13.7299 29.3853L27.3894 42.9682C28.1758 43.7506 29.4514 43.7506 30.2388 42.9682L43.8344 29.4484C44.6212 28.6657 44.6212 27.3961 43.8344 26.6139" fill="#DE4C36"/>
</svg>
