<svg width="57" height="56" viewBox="0 0 57 56" fill="none" xmlns="http://www.w3.org/2000/svg">
<rect x="0.190063" width="56.3129" height="56" rx="16" fill="white"/>
<path d="M43.989 12.4444H28.4117L13.537 28H28.3191L28.3882 27.93L43.989 12.4444Z" fill="url(#paint0_linear_111_130)"/>
<path d="M43.9889 43.5556H12.704H43.9889ZM28.3882 27.93L28.3191 28H28.4585L28.3882 27.93Z" fill="url(#paint1_linear_111_130)"/>
<path d="M28.4116 12.4444H12.704V28.8711V28H13.5369L28.4116 12.4444Z" fill="url(#paint2_linear_111_130)"/>
<path d="M28.3191 28H13.5369L12.704 28.8711V43.5556L28.3191 28Z" fill="url(#paint3_linear_111_130)"/>
<path d="M28.4585 28H28.3191L12.704 43.5556H43.9889L28.4585 28Z" fill="url(#paint4_linear_111_130)"/>
<path d="M13.5369 28H12.704V28.8711L13.5369 28Z" fill="url(#paint5_linear_111_130)"/>
<defs>
<linearGradient id="paint0_linear_111_130" x1="7.1203" y1="40.8757" x2="36.0704" y2="11.7639" gradientUnits="userSpaceOnUse">
<stop stop-color="#C757BC"/>
<stop offset="0.108" stop-color="#C757BC"/>
<stop offset="0.173" stop-color="#CD5CA9"/>
<stop offset="0.492" stop-color="#E8744F"/>
<stop offset="0.716" stop-color="#F88316"/>
<stop offset="0.823" stop-color="#FF8900"/>
<stop offset="1" stop-color="#FF8900"/>
</linearGradient>
<linearGradient id="paint1_linear_111_130" x1="22.8102" y1="49.1596" x2="36.921" y2="34.97" gradientUnits="userSpaceOnUse">
<stop stop-color="#00AFFF"/>
<stop offset="0.296" stop-color="#00AFFF"/>
<stop offset="0.694" stop-color="#5282FF"/>
<stop offset="1" stop-color="#945DFF"/>
</linearGradient>
<linearGradient id="paint2_linear_111_130" x1="12.374" y1="21.0424" x2="22.2729" y2="11.0879" gradientUnits="userSpaceOnUse">
<stop stop-color="#00AFFF"/>
<stop offset="0.296" stop-color="#00AFFF"/>
<stop offset="0.694" stop-color="#5282FF"/>
<stop offset="1" stop-color="#945DFF"/>
</linearGradient>
<linearGradient id="paint3_linear_111_130" x1="7.29493" y1="41.0494" x2="36.245" y2="11.9376" gradientUnits="userSpaceOnUse">
<stop stop-color="#AD4CA4"/>
<stop offset="0.108" stop-color="#AD4CA4"/>
<stop offset="0.173" stop-color="#B25093"/>
<stop offset="0.492" stop-color="#CA6545"/>
<stop offset="0.716" stop-color="#D87213"/>
<stop offset="0.823" stop-color="#DE7700"/>
<stop offset="1" stop-color="#DE7700"/>
</linearGradient>
<linearGradient id="paint4_linear_111_130" x1="22.8102" y1="49.1596" x2="36.921" y2="34.97" gradientUnits="userSpaceOnUse">
<stop stop-color="#0098DE"/>
<stop offset="0.296" stop-color="#0098DE"/>
<stop offset="0.694" stop-color="#4771DE"/>
<stop offset="1" stop-color="#8151DE"/>
</linearGradient>
<linearGradient id="paint5_linear_111_130" x1="16.2862" y1="24.9327" x2="26.185" y2="14.9783" gradientUnits="userSpaceOnUse">
<stop stop-color="#0098DE"/>
<stop offset="0.296" stop-color="#0098DE"/>
<stop offset="0.694" stop-color="#4771DE"/>
<stop offset="1" stop-color="#8151DE"/>
</linearGradient>
</defs>
</svg>
